<?xml version="1.0" encoding="UTF-8" standalone="no"?>
<svg width="33px" height="33px" viewBox="0 0 33 33" version="1.1" xmlns="http://www.w3.org/2000/svg" xmlns:xlink="http://www.w3.org/1999/xlink">
    <!-- Generator: Sketch 41 (35326) - http://www.bohemiancoding.com/sketch -->
    <title>PersonAvatar</title>
    <desc>Created with Sketch.</desc>
    <defs></defs>
    <g id="UI" stroke="none" stroke-width="1" fill="none" fill-rule="evenodd">
        <g id="PeoplePalette" transform="translate(-57.000000, -88.000000)">
            <g id="PeopleCategory">
                <g transform="translate(0.000000, 52.000000)">
                    <g id="PeopleCategoryExpanded">
                        <g id="PersonObject" transform="translate(45.000000, 25.000000)">
                            <g id="PersonAvatar" transform="translate(12.000000, 11.000000)">
                                <circle id="PersonAvartarBoundary" fill="#9E9E9E" cx="16.5" cy="16.5" r="16.5"></circle>
                                <path d="M16.5,15.5 C18.5625,15.5 20.25,13.8125 20.25,11.75 C20.25,9.6875 18.5625,8 16.5,8 C14.4375,8 12.75,9.6875 12.75,11.75 C12.75,13.8125 14.4375,15.5 16.5,15.5 L16.5,15.5 Z M16.5,17.375 C13.96875,17.375 9,18.59375 9,21.125 L9,23 L24,23 L24,21.125 C24,18.59375 19.03125,17.375 16.5,17.375 L16.5,17.375 Z" id="PersonAvatarIcon" fill-opacity="0.7" fill="#FFFFFF"></path>
                            </g>
                        </g>
                    </g>
                </g>
            </g>
        </g>
    </g>
</svg>